<?xml version="1.0" encoding="UTF-8"?><svg id="Layer_2" xmlns="http://www.w3.org/2000/svg" viewBox="0 0 128 128"><defs><style>.cls-1{fill:#fff;}</style></defs><g id="Layer_1-2"><g><path class="cls-1" d="M128,64l-8.93-2.47-29.43-8.15,15.05-26.57,4.57-8.06-8.06,4.57-26.57,15.05-8.15-29.43L64,0l-2.47,8.93-8.15,29.43-26.57-15.05-8.06-4.57,4.57,8.06,15.05,26.57-29.43,8.15L0,64l8.93,2.47,29.43,8.15-15.05,26.57-4.57,8.06,8.06-4.57,26.57-15.05,8.15,29.43,2.47,8.93,2.47-8.93,8.15-29.43,26.57,15.05,8.06,4.57-4.57-8.06-15.05-26.57,29.43-8.15,8.93-2.47Zm-52.21,11.79l-11.79,42.6-11.79-42.6L9.62,64l42.6-11.79L64,9.62l11.79,42.6,42.6,11.79-42.6,11.79Zm26.67-50.25l-15.37,27.13-9.21-2.55-2.55-9.21,27.13-15.37Zm-76.91,0l27.13,15.37-2.55,9.21-9.21,2.55-15.37-27.13Zm0,76.91l15.37-27.13,9.21,2.55,2.55,9.21-27.13,15.37Zm76.91,0l-27.13-15.37,2.55-9.21,9.21-2.55,15.37,27.13Z"/><polygon class="cls-1" points="77.9 64 67.01 60.99 64 50.1 60.99 60.99 50.1 64 60.99 67.01 64 77.9 67.01 67.01 77.9 64"/></g></g></svg>